<svg id="agile" xmlns="http://www.w3.org/2000/svg" width="32.079" height="29.881" viewBox="0 0 32.079 29.881">
  <defs>
    <style>
      .cls-1 {
        fill: #f8b500;
      }

      .cls-2 {
        fill: #301353;
      }
    </style>
  </defs>
  <g id="Group_13" data-name="Group 13" transform="translate(3.257 10.798)">
    <path id="Path_37" data-name="Path 37" class="cls-1" d="M108.365,182.874a.37.37,0,0,1-.37-.37v-4.109a1.57,1.57,0,0,0-1.568-1.568h-3.6a1.57,1.57,0,0,0-1.568,1.568v4.11a.37.37,0,0,1-.739,0v-4.11a2.31,2.31,0,0,1,2.308-2.307h3.593a2.31,2.31,0,0,1,2.307,2.307v4.11a.37.37,0,0,1-.366.369Z" transform="translate(-91.802 -164.812)"/>
    <path id="Path_38" data-name="Path 38" class="cls-1" d="M110.335,141.606a3.063,3.063,0,1,1,3.063-3.063A3.063,3.063,0,0,1,110.335,141.606Zm0-5.387a2.326,2.326,0,1,0,2.326,2.326,2.326,2.326,0,0,0-2.326-2.326Z" transform="translate(-97.551 -130.205)"/>
    <path id="Path_39" data-name="Path 39" class="cls-1" d="M183.446,129.1a.37.37,0,0,1-.37-.37v-2.518a.818.818,0,0,0-.817-.817h-2.2a.818.818,0,0,0-.817.817v2.518a.37.37,0,1,1-.739,0v-2.518a1.558,1.558,0,0,1,1.556-1.556h2.2a1.558,1.558,0,0,1,1.556,1.556v2.518a.37.37,0,0,1-.369.37Z" transform="translate(-158.193 -120.986)"/>
    <path id="Path_40" data-name="Path 40" class="cls-1" d="M184.655,103.829a2.02,2.02,0,1,1,2.02-2.02A2.02,2.02,0,0,1,184.655,103.829Zm0-3.3a1.283,1.283,0,1,0,1.283,1.283A1.283,1.283,0,0,0,184.655,100.53Z" transform="translate(-161.715 -99.79)"/>
    <path id="Path_41" data-name="Path 41" class="cls-1" d="M46.847,129.1a.37.37,0,0,1-.37-.37v-2.518a.818.818,0,0,0-.817-.817h-2.2a.819.819,0,0,0-.817.817v2.518a.37.37,0,1,1-.739,0v-2.518a1.558,1.558,0,0,1,1.557-1.556h2.2a1.558,1.558,0,0,1,1.556,1.556v2.518a.37.37,0,0,1-.371.37Z" transform="translate(-41.903 -120.986)"/>
    <path id="Path_42" data-name="Path 42" class="cls-1" d="M48.053,103.829a2.02,2.02,0,1,1,2.019-2.019,2.02,2.02,0,0,1-2.019,2.019Zm0-3.3a1.283,1.283,0,1,0,1.283,1.283,1.283,1.283,0,0,0-1.283-1.283Z" transform="translate(-45.424 -99.79)"/>
  </g>
  <path id="Path_43" data-name="Path 43" class="cls-2" d="M83.054,162.55a.371.371,0,0,0-.372.37,8.694,8.694,0,1,1-17.389,0,.372.372,0,0,0-.743,0,9.438,9.438,0,1,0,18.876,0,.371.371,0,0,0-.372-.37Z" transform="translate(-57.947 -142.477)"/>
  <path id="Path_44" data-name="Path 44" class="cls-2" d="M162.348,79.037a5.887,5.887,0,1,0,5.887,5.887,5.887,5.887,0,0,0-5.887-5.887Zm0,11.035a5.148,5.148,0,1,1,5.148-5.148,5.148,5.148,0,0,1-5.148,5.148Z" transform="translate(-136.155 -71.371)"/>
  <path id="Path_45" data-name="Path 45" class="cls-2" d="M31.638,84.924a5.887,5.887,0,1,0-5.89,5.887A5.887,5.887,0,0,0,31.638,84.924Zm-5.89,5.148A5.148,5.148,0,1,1,30.9,84.924a5.148,5.148,0,0,1-5.148,5.148Z" transform="translate(-19.865 -71.371)"/>
  <path id="Path_46" data-name="Path 46" class="cls-1" d="M91.592,34.327l.97.25-.509.863a.843.843,0,0,0,.131,1.024l.76.76a.844.844,0,0,0,1.024.13l.862-.509.25.971a.843.843,0,0,0,.817.632h1.074a.843.843,0,0,0,.817-.632l.25-.971.863.509a.843.843,0,0,0,1.023-.131l.76-.76a.844.844,0,0,0,.13-1.024l-.509-.862.971-.25a.843.843,0,0,0,.632-.817V32.436a.844.844,0,0,0-.631-.817l-.971-.249.509-.863a.842.842,0,0,0-.131-1.024l-.76-.76a.844.844,0,0,0-1.024-.131l-.862.509-.25-.971a.843.843,0,0,0-.817-.632H95.9a.843.843,0,0,0-.817.632l-.25.973-.863-.509a.843.843,0,0,0-1.024.131l-.76.76a.843.843,0,0,0-.131,1.024l.509.862-.971.249a.844.844,0,0,0-.632.816v1.075A.843.843,0,0,0,91.592,34.327Zm.107-1.891a.1.1,0,0,1,.08-.1l1.444-.372a.37.37,0,0,0,.226-.545l-.759-1.283a.1.1,0,0,1,.016-.127l.76-.76a.1.1,0,0,1,.127-.016l1.283.759a.37.37,0,0,0,.545-.226l.372-1.444a.1.1,0,0,1,.1-.08h1.074a.1.1,0,0,1,.1.08l.372,1.444a.37.37,0,0,0,.545.226l1.283-.759a.105.105,0,0,1,.127.016l.76.76a.1.1,0,0,1,.016.127l-.759,1.283a.37.37,0,0,0,.225.545l1.444.372a.105.105,0,0,1,.08.1v1.075a.1.1,0,0,1-.08.1l-1.444.372a.37.37,0,0,0-.226.545l.759,1.283a.105.105,0,0,1-.016.127l-.76.76a.105.105,0,0,1-.127.016l-1.283-.759a.37.37,0,0,0-.545.226l-.372,1.444a.1.1,0,0,1-.1.08H95.9a.1.1,0,0,1-.1-.08l-.372-1.444a.37.37,0,0,0-.545-.226l-1.283.759a.105.105,0,0,1-.127-.016l-.76-.76a.1.1,0,0,1-.016-.127l.759-1.283a.37.37,0,0,0-.226-.545l-1.444-.372a.1.1,0,0,1-.08-.1Z" transform="translate(-80.392 -27.499)"/>
  <path id="Path_47" data-name="Path 47" class="cls-1" d="M116.372,54.929a2.016,2.016,0,1,1,2.016-2.016,2.016,2.016,0,0,1-2.016,2.016Zm0-3.293a1.278,1.278,0,1,0,1.278,1.278,1.278,1.278,0,0,0-1.278-1.278Z" transform="translate(-100.331 -47.437)"/>
</svg>
