<svg xmlns="http://www.w3.org/2000/svg" width="54.616" height="75.095" viewBox="0 0 54.616 75.095"><path d="M34.134,0H5.118A5.25,5.25,0,0,0,0,5.121V69.973a5.25,5.25,0,0,0,5.121,5.121H49.494a5.25,5.25,0,0,0,5.121-5.121V20.479L42.67,11.946Z" fill="#4285f4"/><path d="M454.5,1267.067h27.306v-3.412H454.5l0,3.412Zm0,6.827h20.479v-3.412H454.5Zm0-23.894v3.412h27.306V1250Zm0,10.239h27.306v-3.412H454.5l0,3.412Z" transform="translate(-440.848 -1212.454)" fill="#f1f1f1"/><path d="M1136.4,0V15.361a5.247,5.247,0,0,0,5.118,5.118h15.361Z" transform="translate(-1102.266)" fill="#a1c2fa"/></svg>