<svg xmlns="http://www.w3.org/2000/svg" width="70.338" height="90.349" viewBox="0 0 70.338 90.349">
  <path id="flask" d="M21.019,55.873c-2.679-2.107-5.537-4.127-7.49-6.973A56.58,56.58,0,0,1,4.091,31.968C2.783,28,2.335,23.742.648,19.926c-1.762-2.773.3-5.8,3.34-6.682,1.351-.26,3.728-1.536.859-.623-2.573,1.887-2.821-1.715-.183-1.943A2.091,2.091,0,0,0,6.511,7.64C4.578,6.379,11.2,5,7.866,3.114,4.4-.628,12.718-1.349,10.665,2.9c-.491,3.268,5.816-.6,4.351,3.175,1.488,1.813,5.57.414,5.467,2.956,2.167.149,2.911,1.971,4.942,2.111,2.109.952,5.929,1.7,6.646,4.077-2.091,1.655-6.931-3.419-7.165,1.163.632,6.77.471,13.743,2.947,20.189,1.171,3.9,4.011,6.975,6.575,10.015A28.772,28.772,0,0,0,43.6,53.424a37.816,37.816,0,0,0,9.415,2.914c1.313-1,3.633-4.74,5.681-3.166.1,1.772-4.065,3.7-.2,3.505,2.274-.686,3.85,1.757,5.722-.448,1.725,2.043,7.169-1.3,5.942,2.871-1.66,1.071-4.08.424-5.742,1.9-2.74-1.369-4.922,1.224-7.956.9a58.431,58.431,0,0,1-10.212.851c-5.6-.442-11.326-.629-16.657-2.58a33.761,33.761,0,0,1-8.574-4.294Zm4.732,2.052c2.932,1.267,5.8,2.6,9.014,3.008,5.1.708,10.365,1.8,15.482.805-2.316-1.045-4.711.406-7.018-.747-2.767.595-5.736-.153-8.551-.521-3.2-1.424-6.651-2.4-9.646-4.255-3.744-1.367,1.935,1.754,2.947,2.007,2.339,1.327-2.573-.681-3.267-1.233-1.96-1.1-2.209-.87-.193.246.406.237.807.487,1.232.69Zm-5.58-3.944c2.842,1.053-.013-2-1.313-1.822-.577-1-2.2-1.633-1.056-2.171-2.064.717-2.163-2.726-3.133-2.233-2.185-.69-.85-3.134-3.453-4.635-.237-1.582-2.585-2.952-3.333-5.337-.331-1.222-2.654-4.727-1.227-1.464,1.214,3.141,3.351,5.832,5.129,8.518,1.38,2.558,3.011,5.234,5.525,6.829.848.814,1.665,2.059,2.862,2.314Zm-8.185-8.989C12.084,44.563,12.505,45.921,11.986,44.993Zm11.59,10.25C24.2,54.961,22.67,54.887,23.576,55.243Zm1.541.563C24.958,55.029,24.413,56.24,25.117,55.805Zm1.932.805C27.967,55.735,25.631,56.058,27.049,56.61Zm3.309,1.844C30.917,57.63,28.571,58.144,30.359,58.455ZM24,54.025C25.43,53.1,22.159,54.012,24,54.025Zm1.448.722C25.41,54.26,24.936,54.966,25.452,54.747Zm7.239,4.518c1.164.735,6.8,1.61,3.27.3C35.369,59.691,29.421,57.884,32.69,59.265ZM21.2,50.314C21.086,49.826,19.391,49.774,21.2,50.314Zm3.369,1.966C25.446,51.668,22.748,51.808,24.568,52.28ZM27.4,54.018C28.662,53.543,25.362,53.541,27.4,54.018Zm-7.576-5.2c1.366,1.047,5.509.135,2.091-.625-1.554-.828-5.058-1.4-2.669.5Zm9.5,5.8C29.893,53.649,26.937,54.064,29.324,54.617Zm-2.886-2.293c3.338.944-2.808-2.113-.824-.348l.44.2Zm5.786,3.344C35.386,55.7,29.367,55.232,32.224,55.668ZM18.61,46.992C18.486,46.4,17.831,47.041,18.61,46.992ZM37.572,58.669C37.657,57.605,36.541,59.461,37.572,58.669ZM24.007,50.3C23.815,49.736,23.019,50.273,24.007,50.3Zm-5.1-3.674C20.725,46.513,16.424,45.823,18.91,46.622Zm-6.039-3.9C12.645,41.849,10.9,41.155,12.871,42.719ZM28.724,52.78C28.391,52.4,28.567,52.862,28.724,52.78Zm9.865,6.055C38.559,58.254,38.052,59.053,38.589,58.834ZM27.851,51.878C28.029,51.13,26.3,51.651,27.851,51.878ZM20.5,47.219C21.851,47.075,18.335,46.306,20.5,47.219Zm12.433,7.726C35.039,54.111,30.882,54.538,32.934,54.945Zm-6.466-4.389c2.425.312-2.887-1.651-.534-.176Zm8.43,5.183c2.266-1.353,1.519,3.171,3.844.383,2.292-1.674-1.98,2.07.844.3,2.044-1.367,5.063.648,6.969,1.3,1.371-.066,2.7,1.186,4.11.424,2.706-.729-5.293-1.081-3.2-2.373-2.476.721-4.3-.859-5.523-2.445-2.778-.642-5.988-2.061-7.375-4.52-.566-.922.816.131-.489-1.378a20.152,20.152,0,0,1-3.631-4.988c-1.342-.715-1.5-2.823-1.635-.07.011-1.738-1.621-2.907-2.019-2.422-.007-1.673,1.747-.834.519-2.072-.264-1.734-1.134-3.541-1.394-5.5-.406-.943-.058-2.964-1.387-.828-.484,2.259-.16-2.774.593-1.116.988-1.693-.356-1.493-.41-1.26.643-1.428.408-3.455-.169-2.682.343-1.515.543-5.573-.512-4.853.639-1.585,1.213-7.248-1.565-5.088a11.793,11.793,0,0,0-3.994.866c2.887,1.592-.291.575-1.468.321-.153,1.473-1.317.837-2.772.851,2.325.287-1.132,2.377-2.463,1.565-1.732.826,1.493,2.893.034,3.532.18.961-2.652-.348-2.431,1.876-1.68-.708-.23,2.637.611,1.506,2.859.774,2.012,2.537,2.084,4.213-.465.975-2.3-2.294-.408-2.143-1.493-2.424-1.651-.877-2.891.249-.287.081,3.162,1.6,1,2.354,1.9.295,1.96,1.962,2.348,3.017,1.144,1.192.909-1.317,2.28.117-.868-1.278-4.593-3.6-1.594-2.855-.016-1.285-.543-2.322.377-2.3.911-1.647-.954,4.064,1.1,1.969.567-.248.71-1.649,1.73.133,1.482,1.459.536,2.515-1.556,1.178.374,1.27,2.8,1.723,2.341,3.708.483,1.746,1.159,1.1,1.748,1,.462,1.7.725.449.746-.359,2.115.453,1.619,1.7,2.281,2.577,1.457.657-2.086-4.458.415-1.538,2.632,2.377.988,3.369-1.374,2.988,1.495-.121,1.976,2.021,3.847,1.946,1.7.812,2.86,3.927-.079,2.63-1.019-.92-4.629-2.054-1.68-.305a69.734,69.734,0,0,1,7.508,3.6c1.878,1.34,2.689,2.876,3.4,3.18-1.579.754-4.757-.6-2.4-1.017-1.473-.268-3.13-1.013-1.719.821,1.2,1,4.249.9,4.8,1.009-.464,1.021-1.259,1.1.018,1.181-1.425.76.458.879.589,1.311Zm-2.914-8.23c-.868-.907-1.092-2.605-.154-1.129C32.31,46.574,33.368,49.156,31.983,47.508Zm9.492,6.03C42.016,53.5,41.491,53.949,41.475,53.538ZM30.614,45.284C30.579,43.913,30.926,46.342,30.614,45.284Zm-.944-1.269C28.578,41.908,31.045,44.612,29.671,44.015ZM18.236,36.124C18.878,35.953,18.553,37.22,18.236,36.124Zm9.1,4.932C27.73,39.577,27.8,42.3,27.337,41.056Zm-6.429-4.47C20.456,35.77,21.855,37.352,20.908,36.586Zm5.516,1.768c-1.033-2.314.733-1.265.23.379ZM16.911,32.01c-.462-.76-1.225-2.988-.979-3.668.221,1.108,2.356,4.768,1.045,1.516-1.446-2.726,1.73.884,2.057,1.565.153.676-.893-.185-.185,1.4C17.557,31.018,18.087,33.821,16.911,32.01Zm-2.939-2.026C14.092,28.217,14.643,31.194,13.971,29.983Zm1.322.456C15.924,29.107,16.363,32.3,15.294,30.439Zm-3.182-2.461c-1.094-1.089-1.887-2.091.052-.676.746.029-1.66-2.28.18-.733,1.933.353.954,3.172-.232,1.409Zm1.671-.043C14.419,27.3,14.12,28.555,13.783,27.935Zm1.03.329C13.847,26.458,15.982,29.022,14.812,28.264Zm-2.044-1.953c-3.182-2.834,4,1.48.519.524Zm9.118,5.3c-1.378-.825-.367-5.812.1-2.4,1.339-.433-.074,1.763.923,1.741C22.757,32.331,22.31,32.83,21.885,31.607ZM25.258,33.6C25.393,32.1,25.542,34.63,25.258,33.6Zm-.586-.58C24.823,32.38,24.687,33.778,24.672,33.021ZM13.391,25.38c-2.044-2.821,5.942,2.853,1.31.715C14.217,25.968,13.634,25.923,13.391,25.38Zm6.5,3.443C19.692,26.448,20.317,29.216,19.886,28.823Zm4.93,3.163C25.2,30.634,24.845,32.881,24.816,31.986ZM13.705,24.3c1.215-.26,5.034,2.133,1.527.683-.39-.431-1.222-.235-1.527-.683Zm10.433,5.2c.13-2.429.726-1.45.005.349l-.005-.349Zm-9.529-6.046c.5-.726-1.316-3.283.26-.917.681.541,1.971.906.832,1.134C17.492,25.255,15.265,24.1,14.609,23.458Zm9.014,5.287C23.964,25.979,23.925,30.366,23.623,28.745ZM13.574,20.9C13.953,20.741,13.775,21.407,13.574,20.9Zm2.352,1.4C16.531,21.032,17.041,23.718,15.926,22.3Zm6.631,3.688C22.552,25.5,22.683,26.7,22.557,25.991Zm-.385-.85C21.253,22.87,23.03,26.343,22.173,25.141Zm-.564-1.49C21.454,22.714,22.133,24.83,21.608,23.652Zm.92-1.495c-.632-1.113.8-4.905.958-2.553-.667,1.833-.192,2.857.271.4.859-1.933-.185,3.818-1.229,2.154Zm.945-5.64C23.749,16.179,23.535,16.925,23.473,16.517ZM21.895,47.623C21.521,47.3,21.943,47.83,21.895,47.623Zm3.252,1.644c1.809.465,1.8-.281.165-.5-.878-.817-3.654-1.685-1.169-.1C24.306,49.08,24.825,49.069,25.146,49.267ZM18.725,45c1,.744,3.753,2.106,1.419.284.787-.915-1.506-1.4-.745-2.014-1.935-1.184-1.528-1.078-.171-1.041-2.325-1.041.336-.961.21-1.495-.9-.176-4.454-1.582-2.361.115-2.127-1.084-.507.4-1.15.248-2.176-.593,1.937,1.657-.345,1.1,1.247.988,3.358,2.533.526,1.045-.372.537,2.027,1.351,2.616,1.759Zm3.4,1.955C26.26,48.288,20.1,45.327,22.126,46.956ZM39.536,57.5C39.59,56.682,38.971,58.2,39.536,57.5Zm1.79.753c.954-.923.04,1.473,1.581-.226.016-1.217-.047-1.935-1.771-.457-.476.264-.688,1.383.19.683ZM12.92,40.417C12.627,39.265,10.866,39.27,12.92,40.417Zm1.91,1.252C14.12,40.492,12.3,40.6,14.83,41.669ZM25.7,48.225c1.062.944,4.875.692,1.289.117C26.46,47.557,23.619,47.745,25.7,48.225Zm14.943,9.23C42.277,56.084,39.062,58.066,40.644,57.455Zm3.4,2.334C44.052,59.348,43.338,59.981,44.042,59.788Zm.005-.616C45.856,57.257,42.3,59.285,44.047,59.172ZM8.22,36.482c-1.541-2.2-.958-3.187-2.445-4.984-.282-1.374-2.551-4.49-1.173-1.189,1.261,1.932,1.635,4.921,3.619,6.174Zm35.26,22.081C46.809,56.412,42.114,57.627,43.479,58.563Zm2.541,1C47.687,58.128,44.965,59.26,46.02,59.558ZM12.354,37.985C12.83,37.276,11.121,37.894,12.354,37.985ZM45.49,58.879c1.613-1.04-.372-.88-.293.1Zm-21.9-13.8C23.537,44.373,22.739,45.136,23.592,45.077Zm1.353.778C24.514,44.985,24.284,45.992,24.945,45.855ZM48.079,59.582c2.068-1.492-1.252-.286-.433.284Zm-.792-.383C48.972,57.788,45.51,59.824,47.287,59.2Zm4.046,2.693C52.463,61.136,49.958,61.648,51.332,61.892ZM13.391,37.473c1.514.339,6.056,3.732,3.378.235-1.372-.406-.55-3.761-1.949-3.168.94,1.57.772,2.237-1.2,1.249-2.477-1.211-1.392.6-.907,1.1-.662.151.873.573.679.585Zm-6.9-5.453c.271-1.123-2.5-6.174-1.308-2.532C5.607,30.253,5.563,31.7,6.486,32.021ZM19.16,39.834C18.378,39.182,19.122,39.741,19.16,39.834Zm1.921.448C21.08,39.092,18.957,39.8,21.08,40.282Zm16.655,10.5C37.418,49.967,36.48,50.762,37.736,50.78Zm.8.584C38.416,50.909,38.073,51.452,38.535,51.363Zm6.6,4.159C45.77,55.054,44.344,55.462,45.136,55.523ZM9.934,32.9C11.75,32.2,7.988,32.4,9.934,32.9Zm26.335,16.59C36.248,48.316,35.111,49.784,36.269,49.491ZM9.217,31.228C10.383,30.835,8.137,30.97,9.217,31.228Zm3.385,1.64C12.582,32.482,12.244,33.016,12.6,32.869ZM53.9,58.193c1.5-.3,4.919.764,5.471-.4-1.822-.045-6.3-1.287-6.513.294l.4.063.643.039ZM13.678,33.14C13.705,31.949,12.749,33.1,13.678,33.14Zm-8.9-6.175C4.374,24.7,3.24,26.621,4.778,26.965ZM6.9,27.5C6.927,26.769,4.957,26.842,6.9,27.5Zm1.213.6C7.762,27.811,7.839,28.452,8.112,28.095Zm7.634,4.9C16.106,32.66,14.895,32.747,15.746,32.991Zm-8.441-6.24C7.1,25.037,4.846,26.494,7.306,26.751ZM2.952,23.926C2.891,23.136,2.528,24.225,2.952,23.926Zm.648-.488C3.495,22.5,3.044,23.556,3.6,23.438Zm3.576,2.134c1.513-.593-2.755-1.229-.309-.111Zm47.87,29.57C56.015,54.254,53.818,54.867,55.047,55.142Zm5.783,3C61.219,56.993,59.853,58.29,60.83,58.139ZM7.542,23.7C7.7,22.588,6.342,23.919,7.542,23.7Zm-5.089-3.41c-.273-1.567-.235-4.318,2.379-3.389-3.489.693,2.417,4.338,1.671,1.46,1.468.072,2.871-.867,2.1.557,2.893-.318,4.9-2.826,7.69-2.474a30.472,30.472,0,0,0,6.9-1.383c1.928-.138,3.783-2.214,2.728-3.444a29.825,29.825,0,0,0-8.286.685c-3.219.668-6.144,1.94-9.393,2.487-3.168.426.636,1.171-.271,1.338-1.651.573,1.971.959-.214,1.565C6.405,17.434,5,16.97,5.577,15.547c-3.033.4-5.7,1.653-3.3,4.739l.178,0Zm7.311-3.723c.71-2.619,3.809,2.156,1.164.349A1.648,1.648,0,0,0,9.763,16.566ZM9.9,15.3C10.927,14.532,10.446,15.725,9.9,15.3Zm1.3.022c.094-1.206,2.985.638.476.433l-.476-.433Zm1.782-.717C13.639,13.838,13.175,15.276,12.986,14.6Zm.457-.305c1.085-1.3,6.139-.832,2.44-.128-.992-.747-1.752.44-2.44.128Zm6.6-1.017C19.877,9.718,23.319,14.541,20.04,13.278Zm1.872-.011c.684-1.793,2.657-.72.318-.361C22.28,13.1,22.16,13.833,21.912,13.267ZM6.8,22.778C8.848,21.526,4.634,21.692,6.8,22.778Zm1.513.419C9.034,22.436,6.757,22.888,8.317,23.2Zm-4.456-3.16C5.029,19.138,2.478,19.7,3.861,20.037ZM64.244,57.812C64.278,56.77,63.351,58.281,64.244,57.812Zm-6.136-4.188C58.282,52.426,57.319,53.728,58.108,53.624Zm7.823,4.593c1.633.006,4.95-.509,1.4-.507C66.768,57.8,64.077,57.778,65.931,58.216ZM9.647,22.462c1.322-.09,2.068-1.457-.257-1.38-3.6-.372,3.178,1.234-.462.775C8.439,22.18,9.617,22.552,9.647,22.462Zm1.164.59C10.672,22.2,10.4,23.5,10.811,23.052Zm1.381-3.683C12.765,18.657,11.4,19.178,12.192,19.368Zm-4.4-7.35c2.361-.8,5.588-1.7,6.7.4-1.134-1.364-.458-2.708.613-.712,1.514,2.018,2.272-.918,1.288-1.6,1.123,1.394,2.4,2.054.751.088,1.791-2.154-3.584.282-4.806.257-.587.264-6.069,1.4-4.547,1.566ZM9.177,9.37c1.346-1.015,4.655.605,2.532-1.01C11.5,8.177,7.059,9.586,9.177,9.37Zm4.907.2c1.574.04-.679-2.116,1.2-1.139-.307-1.006-2.185-1.195-3.1-1.6C11.659,7.757,13.234,9.586,14.084,9.573ZM10.038,5.119C10.582,4.381,9.082,5.495,10.038,5.119Zm2.006.479c2.538-.336-.647-1.092-.513-.027l.512.027ZM8.3,2.67C6.511.336,11.66,3.062,9.844.618,8.315-.6,6.847,1.989,8.3,2.67ZM31.233,15.023c.82-1.452-3.383-1.958-.551-.514.26.087.2.615.551.514ZM14.592,69.1a18.4,18.4,0,0,0-.336,3.6q0,.5-.448.5a.631.631,0,0,1-.625-.433,5.652,5.652,0,0,0-.913-1.634,2.2,2.2,0,0,0-1.361-.657,40.959,40.959,0,0,0-4.549-.144,2.179,2.179,0,0,0-1.089.177q-.16.111-.16.481v7.256q0,.368.464.353Q7,78.584,9.706,78.408a.939.939,0,0,0,.713-.345,4.583,4.583,0,0,0,.36-1.449.547.547,0,0,1,.753-.5c.363.075.519.24.465.5a23.645,23.645,0,0,0-.289,5.671q.017.415-.528.448-.449.048-.561-.481-.415-2-1.545-2.139A34.819,34.819,0,0,0,5.4,79.978c-.192,0-.288.069-.288.208v7.208A1.1,1.1,0,0,0,5.7,88.483a7.221,7.221,0,0,0,2,.433c.524.053.753.284.69.689q-.1.529-1.41.417a29.938,29.938,0,0,0-6.263.033q-.69.095-.689-.561,0-.417.689-.481,1.57-.177,1.569-2.755V72.545a2.947,2.947,0,0,0-.376-1.625,3.243,3.243,0,0,0-1.4-1.033Q-.129,69.6.032,69.1c.053-.2.139-.315.256-.336a2.707,2.707,0,0,1,.849.064,41.309,41.309,0,0,0,4.758.16q4.422,0,7.641-.192,1.073-.065,1.073.176a.5.5,0,0,1-.017.128ZM24.98,89.435q0,.641-.721.561a31.772,31.772,0,0,0-5.478.063,1.686,1.686,0,0,1-.809-.031c-.1-.065-.152-.24-.152-.53q0-.383.872-.648t.873-1.577v-14.5a3.74,3.74,0,0,0-.376-1.907,2.438,2.438,0,0,0-1.322-.944q-.5-.177-.5-.5,0-.481.721-.721a10.085,10.085,0,0,0,2.259-1.089,3.72,3.72,0,0,1,1.217-.576q.592,0,.593.816,0-.063-.065,1.6-.047,1.585-.031,3.124l.063,14.3a1.843,1.843,0,0,0,.481,1.418,3,3,0,0,0,1.65.584q.72.08.721.545Zm14.488-.945q0,.337-1.225,1.017a4.409,4.409,0,0,1-1.962.681,1.389,1.389,0,0,1-1.105-.609q-.481-.609-.673-.608a10,10,0,0,0-1.522.656,6.377,6.377,0,0,1-2.771.657,3.223,3.223,0,0,1-2.195-.768,2.923,2.923,0,0,1-.961-2.307q0-2.771,6.344-3.972c.725-.139,1.095-.433,1.1-.881l.033-1.025q.1-2.627-2.323-2.626-.689,0-1.306,1.233a2.137,2.137,0,0,1-1.77,1.33q-1.313.127-1.314-1.106,0-.769,1.954-1.794a8.5,8.5,0,0,1,3.941-1.074q3.251,0,3.219,3.092l-.065,6.6q-.015,1.041.881,1.041a5.135,5.135,0,0,0,.673-.08q.5-.08.578-.08c.309,0,.464.209.464.625Zm-4.933-3.652c.011-.267-.051-.444-.185-.529a.894.894,0,0,0-.632-.049q-3.861.689-3.861,2.515,0,1.842,2,1.842a4.877,4.877,0,0,0,1.65-.3q.994-.354.994-.85l.032-2.626Zm16.843,1.809a3.227,3.227,0,0,1-1.306,2.7,5.719,5.719,0,0,1-3.564,1,14.421,14.421,0,0,1-3.011-.32,3.654,3.654,0,0,1-1.506-.528,8.91,8.91,0,0,1-.128-2.195q0-.849.385-.881a.668.668,0,0,1,.657.416,4.129,4.129,0,0,0,3.877,2.1q2.257,0,2.258-1.571a1.491,1.491,0,0,0-.513-1.153,8.217,8.217,0,0,0-2.178-1.234,11.186,11.186,0,0,1-3.124-1.826,3,3,0,0,1-.849-2.243,3.129,3.129,0,0,1,1.33-2.691,5.35,5.35,0,0,1,3.3-.929,12.452,12.452,0,0,1,2.372.208q1.153.209,1.2.513.127.9.529,2.6c.032.138-.118.25-.448.336q-.529.112-.705-.176a3.7,3.7,0,0,0-3.2-2.067q-2.194,0-2.195,1.41a1.5,1.5,0,0,0,.593,1.249,14.994,14.994,0,0,0,2.483,1.25A10.062,10.062,0,0,1,50.415,84.2a3.221,3.221,0,0,1,.961,2.451Zm18.845,2.8q0,.56-.753.593-1.121.016-2.931.16a1.342,1.342,0,0,1-1.281-.224,33.22,33.22,0,0,1-4.294-5.7.421.421,0,0,0-.368-.256,2.143,2.143,0,0,0-.944.481,1.3,1.3,0,0,0-.753,1.184q0,.546.032,1.571A1.589,1.589,0,0,0,59.44,88.6a4.13,4.13,0,0,0,1.554.353q.753.1.753.561c0,.246-.04.4-.12.456a1.159,1.159,0,0,1-.633.04,36.867,36.867,0,0,0-5.414.16q-.961.08-1.041-.24a1.232,1.232,0,0,1-.032-.32c0-.33.326-.582.978-.752q.881-.226.881-2.067v-14a4.489,4.489,0,0,0-.257-1.826,2.43,2.43,0,0,0-1.474-1.026q-.528-.175-.528-.5,0-.466.753-.721a10.043,10.043,0,0,0,2.29-1.106,3.475,3.475,0,0,1,1.089-.576q.658,0,.658.833,0-.113-.017,1.585-.017,1.57-.015,3.14L58.9,82.628c0,.278.074.416.224.416a1.449,1.449,0,0,0,.737-.416q1.33-1.041,3.267-2.723a1.1,1.1,0,0,0,.385-.641c0-.288-.432-.492-1.3-.608a.532.532,0,0,1-.53-.625q.049-.56.561-.481a27.788,27.788,0,0,0,3.364.177q1.539.015,3.06.016c.33.011.5.208.5.593q0,.544-.784.593a5.9,5.9,0,0,0-2.323.561A11.5,11.5,0,0,0,62.8,81.907a.292.292,0,0,0-.128.24,3.2,3.2,0,0,0,.545,1.073,22.774,22.774,0,0,0,3.78,4.6,3.381,3.381,0,0,0,2.13.977,2.317,2.317,0,0,1,.913.1q.177.1.177.552Z"/>
</svg>
