<?xml version="1.0" encoding="UTF-8"?>
<svg xmlns="http://www.w3.org/2000/svg" xmlns:xlink="http://www.w3.org/1999/xlink" width="83pt" height="83pt" viewBox="0 0 83 83" version="1.1">
<defs>
<radialGradient id="radial0" gradientUnits="userSpaceOnUse" cx="0.065" cy="0.978" fx="0.065" fy="0.978" r="1.27" gradientTransform="matrix(82.742188,0,0,82.738281,0,0)">
<stop offset="0.09" style="stop-color:rgb(98.039216%,56.078431%,12.941176%);stop-opacity:1;"/>
<stop offset="0.78" style="stop-color:rgb(84.705882%,17.647059%,49.411765%);stop-opacity:1;"/>
</radialGradient>
<radialGradient id="radial1" gradientUnits="userSpaceOnUse" cx="0.693" cy="0.946" fx="0.693" fy="0.946" r="1.117" gradientTransform="matrix(82.742188,0,0,82.738281,0,0)">
<stop offset="0.64" style="stop-color:rgb(54.901961%,22.745098%,66.666667%);stop-opacity:0;"/>
<stop offset="1" style="stop-color:rgb(54.901961%,22.745098%,66.666667%);stop-opacity:1;"/>
</radialGradient>
</defs>
<g id="surface1">
<path style=" stroke:none;fill-rule:nonzero;fill:url(#radial0);" d="M 20.980469 82.449219 C 17.78125 82.414062 14.609375 81.828125 11.609375 80.714844 C 9.417969 79.90625 7.433594 78.613281 5.804688 76.941406 C 4.128906 75.3125 2.835938 73.332031 2.03125 71.140625 C 0.917969 68.136719 0.332031 64.96875 0.296875 61.765625 C 0.0507812 56.445312 0 54.851562 0 41.375 C 0 27.898438 0.0546875 26.304688 0.292969 20.984375 C 0.332031 17.78125 0.917969 14.613281 2.027344 11.609375 C 2.839844 9.417969 4.128906 7.433594 5.804688 5.804688 C 7.429688 4.125 9.414062 2.835938 11.609375 2.027344 C 14.609375 0.917969 17.777344 0.328125 20.980469 0.292969 C 26.300781 0.0507812 27.898438 0 41.371094 0 C 54.84375 0 56.441406 0.0546875 61.761719 0.292969 C 64.964844 0.332031 68.132812 0.917969 71.136719 2.027344 C 73.328125 2.835938 75.3125 4.128906 76.941406 5.804688 C 78.617188 7.433594 79.90625 9.414062 80.714844 11.609375 C 81.828125 14.609375 82.414062 17.777344 82.449219 20.980469 C 82.695312 26.308594 82.742188 27.898438 82.742188 41.371094 C 82.742188 54.84375 82.695312 56.441406 82.449219 61.761719 C 82.414062 64.960938 81.824219 68.132812 80.714844 71.132812 C 79.015625 75.535156 75.539062 79.011719 71.136719 80.710938 C 68.136719 81.824219 64.964844 82.410156 61.765625 82.445312 C 56.445312 82.691406 54.847656 82.738281 41.371094 82.738281 C 27.898438 82.738281 26.304688 82.691406 20.980469 82.445312 "/>
<path style=" stroke:none;fill-rule:nonzero;fill:url(#radial1);" d="M 20.980469 82.449219 C 17.78125 82.414062 14.609375 81.828125 11.609375 80.714844 C 9.417969 79.90625 7.433594 78.613281 5.804688 76.941406 C 4.128906 75.3125 2.835938 73.332031 2.03125 71.140625 C 0.917969 68.136719 0.332031 64.96875 0.296875 61.765625 C 0.0507812 56.445312 0 54.851562 0 41.375 C 0 27.898438 0.0546875 26.304688 0.292969 20.984375 C 0.332031 17.78125 0.917969 14.613281 2.027344 11.609375 C 2.839844 9.417969 4.128906 7.433594 5.804688 5.804688 C 7.429688 4.125 9.414062 2.835938 11.609375 2.027344 C 14.609375 0.917969 17.777344 0.328125 20.980469 0.292969 C 26.300781 0.0507812 27.898438 0 41.371094 0 C 54.84375 0 56.441406 0.0546875 61.761719 0.292969 C 64.964844 0.332031 68.132812 0.917969 71.136719 2.027344 C 73.328125 2.835938 75.3125 4.128906 76.941406 5.804688 C 78.617188 7.433594 79.90625 9.414062 80.714844 11.609375 C 81.828125 14.609375 82.414062 17.777344 82.449219 20.980469 C 82.695312 26.308594 82.742188 27.898438 82.742188 41.371094 C 82.742188 54.84375 82.695312 56.441406 82.449219 61.761719 C 82.414062 64.960938 81.824219 68.132812 80.714844 71.132812 C 79.015625 75.535156 75.539062 79.011719 71.136719 80.710938 C 68.136719 81.824219 64.964844 82.410156 61.765625 82.445312 C 56.445312 82.691406 54.847656 82.738281 41.371094 82.738281 C 27.898438 82.738281 26.304688 82.691406 20.980469 82.445312 "/>
<path style=" stroke:none;fill-rule:nonzero;fill:rgb(100%,100%,100%);fill-opacity:1;" d="M 31.296875 41.550781 C 31.296875 35.9375 35.847656 31.386719 41.460938 31.386719 C 47.074219 31.390625 51.625 35.941406 51.625 41.554688 C 51.625 47.167969 47.074219 51.71875 41.460938 51.71875 C 35.847656 51.71875 31.296875 47.167969 31.296875 41.550781 M 25.800781 41.550781 C 25.800781 50.199219 32.8125 57.210938 41.460938 57.210938 C 50.109375 57.214844 57.121094 50.203125 57.121094 41.554688 C 57.121094 32.90625 50.109375 25.894531 41.460938 25.894531 C 32.8125 25.894531 25.800781 32.90625 25.800781 41.554688 M 54.082031 25.273438 C 54.082031 27.292969 55.71875 28.933594 57.738281 28.933594 C 59.761719 28.933594 61.398438 27.296875 61.402344 25.277344 C 61.402344 23.253906 59.765625 21.617188 57.742188 21.613281 C 55.722656 21.617188 54.085938 23.253906 54.085938 25.273438 M 29.144531 66.375 C 27.210938 66.351562 25.292969 66 23.480469 65.324219 C 20.820312 64.300781 18.71875 62.199219 17.691406 59.539062 C 17.019531 57.726562 16.664062 55.808594 16.644531 53.875 C 16.496094 50.660156 16.464844 49.695312 16.464844 41.550781 C 16.464844 33.40625 16.496094 32.445312 16.644531 29.226562 C 16.667969 27.292969 17.023438 25.378906 17.691406 23.566406 C 18.71875 20.90625 20.820312 18.800781 23.480469 17.777344 C 25.292969 17.105469 27.210938 16.75 29.144531 16.726562 C 32.359375 16.578125 33.324219 16.550781 41.464844 16.550781 C 49.605469 16.550781 50.570312 16.582031 53.789062 16.726562 C 55.722656 16.753906 57.636719 17.105469 59.453125 17.777344 C 62.113281 18.800781 64.214844 20.90625 65.238281 23.566406 C 65.914062 25.378906 66.265625 27.296875 66.289062 29.230469 C 66.4375 32.445312 66.464844 33.410156 66.464844 41.554688 C 66.464844 49.699219 66.4375 50.660156 66.289062 53.878906 C 66.265625 55.8125 65.910156 57.726562 65.238281 59.539062 C 64.214844 62.199219 62.113281 64.300781 59.453125 65.328125 C 57.636719 66 55.722656 66.355469 53.789062 66.375 C 50.574219 66.523438 49.609375 66.554688 41.464844 66.554688 C 33.320312 66.554688 32.359375 66.523438 29.144531 66.375 M 28.890625 11.242188 C 26.363281 11.292969 23.859375 11.769531 21.488281 12.65625 C 17.394531 14.242188 14.160156 17.480469 12.574219 21.574219 C 11.6875 23.941406 11.207031 26.445312 11.160156 28.976562 C 11.007812 32.226562 10.972656 33.265625 10.972656 41.546875 C 10.972656 49.828125 11.007812 50.871094 11.160156 54.121094 C 11.207031 56.652344 11.6875 59.152344 12.574219 61.523438 C 14.160156 65.617188 17.394531 68.855469 21.488281 70.4375 C 23.859375 71.324219 26.363281 71.804688 28.890625 71.855469 C 32.144531 72.003906 33.183594 72.039062 41.464844 72.039062 C 49.746094 72.039062 50.789062 72.003906 54.039062 71.855469 C 56.566406 71.804688 59.070312 71.324219 61.441406 70.4375 C 65.535156 68.855469 68.769531 65.617188 70.355469 61.523438 C 71.242188 59.152344 71.722656 56.652344 71.769531 54.121094 C 71.917969 50.867188 71.953125 49.828125 71.953125 41.546875 C 71.953125 33.265625 71.917969 32.222656 71.769531 28.976562 C 71.722656 26.445312 71.242188 23.941406 70.355469 21.574219 C 68.769531 17.480469 65.535156 14.242188 61.441406 12.65625 C 59.070312 11.769531 56.566406 11.292969 54.039062 11.242188 C 50.785156 11.09375 49.746094 11.058594 41.464844 11.058594 C 33.1875 11.058594 32.140625 11.09375 28.890625 11.242188 "/>
</g>
</svg>
