<svg xmlns="http://www.w3.org/2000/svg" width="80.926" height="88.651" viewBox="0 0 80.926 88.651"><g transform="translate(-6.909 -7)"><path d="M73.926,213.214c-.1.059-3.6-.532-8.012-.827a87.973,87.973,0,0,0-11.162,0c-2.756.177-6.378-1.2-6.811.453a33.369,33.369,0,0,1-9.547,15.729,32.419,32.419,0,0,1-11.3,7.008,10.279,10.279,0,0,1-5.158-13.071c1.654-3.917,3.6-8.209.02-9.193-2.6-.709-4.036,1.772-5.02,4.429-1.909,5.1-5.551,10.374-6.595,16.634-1.1,6.595,0,13.6,5.709,17.579,13.307,9.213,27.737-5.709,42.954-9.469,5.512-1.358,11.575-1.142,16.437-3.957a13.708,13.708,0,0,0,6.732-9.547C83.276,222.643,79.989,216.364,73.926,213.214Z" transform="translate(0 -162.248)" fill="#99425b" stroke="#fff" stroke-width="6"/><path d="M47.941,216.2a33.369,33.369,0,0,1-9.547,15.729,32.419,32.419,0,0,1-11.3,7.008,10.279,10.279,0,0,1-5.158-13.071c1.654-3.917,3.6-8.209.02-9.193-2.6-.709-4.036,1.772-5.02,4.429-1.909,5.1-5.551,10.374-6.595,16.634-1.1,6.595,0,13.6,5.709,17.579,13.307,9.213,27.737-5.709,42.954-9.469,5.512-1.358,11.575-1.142,16.437-3.957a13.708,13.708,0,0,0,6.732-9.547,14.922,14.922,0,0,0-8.248-15.748" transform="translate(0 -165.609)" fill="none" stroke="#fff" stroke-width="6"/><path d="M168.844,25.985,179.533,47.8,192.348,10H145.3l12.8,37.717Z" transform="translate(-108.698)" fill="#99425b"/><path d="M168.844,25.985,179.533,47.8,192.348,10H145.3l12.8,37.717Z" transform="translate(-108.698)" fill="none" stroke="#fff" stroke-width="6"/><circle cx="8.051" cy="8.051" r="8.051" transform="translate(39.122 42.619)" fill="#99425b"/><g transform="translate(39.122 42.619)"><circle cx="8.051" cy="8.051" r="8.051" transform="translate(0)" fill="none" stroke="#fff" stroke-width="6"/><circle cx="8.051" cy="8.051" r="8.051" transform="translate(26.26)" fill="#99425b" stroke="#fff" stroke-width="6"/><circle cx="8.051" cy="8.051" r="8.051" transform="translate(26.26)" fill="none" stroke="#fff" stroke-width="6"/></g><circle cx="8.051" cy="8.051" r="8.051" transform="translate(12.763 42.678)" fill="#99425b"/><circle cx="8.051" cy="8.051" r="8.051" transform="translate(12.763 42.678)" fill="none" stroke="#fff" stroke-width="6"/></g></svg>