<svg id="mongodb" xmlns="http://www.w3.org/2000/svg" width="151.821" height="43.27" viewBox="0 0 151.821 43.27">
  <defs>
    <style>
      .cls-1 {
        fill: #8e714e;
      }

      .cls-1, .cls-2, .cls-3, .cls-4, .cls-5, .cls-6 {
        fill-rule: evenodd;
      }

      .cls-2 {
        fill: #442d22;
      }

      .cls-3 {
        fill: #fff;
      }

      .cls-4 {
        fill: #a6a385;
      }

      .cls-5 {
        fill: #499d4a;
      }

      .cls-6 {
        fill: #58aa50;
      }
    </style>
  </defs>
  <path id="Path_113981" data-name="Path 113981" class="cls-1" d="M410.04,56.894c-.137.028-.274.329-.274.49-.028,1.1-.055,4-.055,5.973a.2.2,0,0,0,.164.164c.411.028,1.4.055,2.246.055a5.863,5.863,0,0,0,2.246-.329,2.91,2.91,0,0,0,1.451-2.74c0-2.657-1.863-3.671-4.63-3.671a4.394,4.394,0,0,0-1.15.058Zm7.068,12.245c0-2.712-2-4.219-5.616-4.219a15.785,15.785,0,0,0-1.589.028c-.082.028-.191.083-.191.165,0,1.945-.028,5.041.055,6.246a2.067,2.067,0,0,0,.9,1.479,6.27,6.27,0,0,0,2.383.329,3.74,3.74,0,0,0,4.054-4.026ZM404.454,55.387c.274,0,1.1.082,3.205.082,2,0,3.589-.055,5.534-.055,2.383,0,5.671.849,5.671,4.413a4.3,4.3,0,0,1-2.849,3.835c-.082.028-.082.082,0,.109,2.3.576,4.329,2,4.329,4.685,0,2.63-1.644,4.3-4.027,5.342a13.1,13.1,0,0,1-5.1.849c-1.4,0-5.149-.164-7.233-.109-.219-.083.192-1.069.383-1.233a5.114,5.114,0,0,0,1.4-.219c.74-.191.822-.411.931-1.532.055-.959.055-4.356.055-6.767,0-3.315.028-5.561,0-6.657-.027-.849-.329-1.124-.931-1.287-.466-.082-1.233-.192-1.863-.274-.137-.137.329-1.069.49-1.178Zm-15.807,17.04a5.521,5.521,0,0,0,3.1.739,6.068,6.068,0,0,0,4.383-1.562c1.452-1.315,2.465-3.342,2.465-6.574a7.848,7.848,0,0,0-3.589-7.1,9.691,9.691,0,0,0-5.149-1.205,4.106,4.106,0,0,0-1.532.191.805.805,0,0,0-.274.438c-.055.548-.055,4.767-.055,7.233,0,2.547,0,6.109.055,6.52a1.7,1.7,0,0,0,.6,1.315Zm-6.219-17.04c.52,0,2.52.082,3.479.082,1.726,0,2.959-.082,6.219-.082a10.131,10.131,0,0,1,6.684,2.137,8.883,8.883,0,0,1,3.041,7.013,9.179,9.179,0,0,1-3.781,7.89,12.669,12.669,0,0,1-7.862,2.219c-1.863,0-5.068-.055-7.723-.082h-.028c-.137-.245.219-1.205.438-1.233a4.367,4.367,0,0,0,1.26-.245c.575-.219.685-.521.767-1.532.082-1.89.055-4.164.055-6.742,0-1.835.028-5.425-.028-6.575-.082-.959-.49-1.205-1.315-1.37-.411-.082-.959-.192-1.725-.274-.11-.192.383-1.042.52-1.205Z" transform="translate(-268.522 -39.003)"/>
  <path id="Path_113982" data-name="Path 113982" class="cls-2" d="M138.88,88.548a5.51,5.51,0,0,1-1.778-.465.835.835,0,0,1-.219-.438c-.055-.959-.055-3.7-.055-5.534a6.458,6.458,0,0,0-.877-3.671,3.739,3.739,0,0,0-3.178-1.644,7.337,7.337,0,0,0-4.164,1.972c-.028.028-.245.219-.219-.082,0-.3.055-.9.082-1.315a.71.71,0,0,0-.192-.575,18.283,18.283,0,0,1-4.246,1.1c-.657.137-.822.767-.137.986h.028a6.078,6.078,0,0,1,1.616.712.852.852,0,0,1,.245.767c.028,2.055.028,5.205-.055,6.931-.028.685-.219.931-.712,1.042l.055-.028a10.812,10.812,0,0,1-1.15.219,1.6,1.6,0,0,0,0,1.233c.3,0,1.89-.082,3.206-.082,1.808,0,2.739.082,3.205.082a1.784,1.784,0,0,0,.137-1.233,5.071,5.071,0,0,1-1.26-.192c-.49-.11-.63-.356-.658-.931-.055-1.452-.055-4.52-.055-6.6a1.321,1.321,0,0,1,.329-1.014,4.145,4.145,0,0,1,2.548-.931,2.832,2.832,0,0,1,1.89.63,2.7,2.7,0,0,1,.876,1.725c.137,1.178.082,3.507.082,5.534,0,1.1-.082,1.37-.49,1.507a5.215,5.215,0,0,1-1.26.245,1.6,1.6,0,0,0,0,1.233c.8,0,1.726-.082,3.1-.082,1.7,0,2.794.082,3.233.082a1.911,1.911,0,0,0,.082-1.178Zm7.588-10.463c-1.451,0-2.356,1.123-2.356,2.876,0,1.781.8,3.835,3.041,3.835a2.123,2.123,0,0,0,1.424-.548,3.627,3.627,0,0,0,.877-2.52c0-2.273-1.124-3.643-2.986-3.643Zm-.192,12.108a2.355,2.355,0,0,0-1.178.3c-1.151.739-1.671,1.451-1.671,2.3a2.423,2.423,0,0,0,.959,1.972,4.867,4.867,0,0,0,3.287,1.014c2.794,0,4.027-1.507,4.027-2.986a2.094,2.094,0,0,0-1.589-2.11,11.065,11.065,0,0,0-3.835-.49Zm.192,7.123a6.061,6.061,0,0,1-3.917-1.15,3.611,3.611,0,0,1-1.451-2.714,2.1,2.1,0,0,1,.548-1.37,14.526,14.526,0,0,1,2.517-2.027c.055-.028.082-.055.082-.11a.184.184,0,0,0-.11-.137,2.607,2.607,0,0,1-1.781-1.726v-.055c-.027-.164-.082-.329.165-.49.192-.137.466-.3.767-.49a11.254,11.254,0,0,0,1.26-.823.2.2,0,0,0,.055-.164.184.184,0,0,0-.11-.137,3.994,3.994,0,0,1-2.876-4.192,4.159,4.159,0,0,1,1.753-3.451,8.055,8.055,0,0,1,3.945-1.342h.082a8.4,8.4,0,0,1,3.013.658,5.07,5.07,0,0,0,1.781.274,2.371,2.371,0,0,0,1.917-.712,1.488,1.488,0,0,1,.11.548,2.069,2.069,0,0,1-.356,1.26,1.556,1.556,0,0,1-1.205.52h-.137a6.1,6.1,0,0,1-.711-.114l-.109.055c-.028.055,0,.11.028.192l.028.055a10.105,10.105,0,0,1,.164,1.178,4.438,4.438,0,0,1-1.863,3.972,6.308,6.308,0,0,1-3.205,1.233,3.45,3.45,0,0,0-.384.028c-.137,0-.329.028-.356.028h-.028c-.219.055-.767.329-.767.8,0,.411.245.9,1.424.986.245.028.49.028.767.055a24.018,24.018,0,0,1,4.413.548,3.07,3.07,0,0,1,2.049,2.926c0,2.028-1.451,3.918-3.862,5.1a8.812,8.812,0,0,1-3.644.8Zm15.615-19.094a2.544,2.544,0,0,0-1.479.411c-1.068.658-1.616,1.972-1.616,3.89,0,3.589,1.808,6.109,4.383,6.109a2.788,2.788,0,0,0,1.89-.658c.8-.658,1.206-1.972,1.206-3.808,0-3.561-1.781-5.946-4.383-5.946Zm.49,11.725c-4.658,0-6.328-3.425-6.328-6.63a5.931,5.931,0,0,1,2.712-5.205,8.246,8.246,0,0,1,4.192-1.233A5.869,5.869,0,0,1,169.2,83.1a6.36,6.36,0,0,1-2.877,5.67,7.6,7.6,0,0,1-3.753,1.178ZM113.759,78.221a2.545,2.545,0,0,0-1.48.411c-1.068.658-1.616,1.972-1.616,3.89,0,3.589,1.808,6.109,4.383,6.109a2.789,2.789,0,0,0,1.89-.658c.8-.658,1.205-1.972,1.205-3.808,0-3.561-1.753-5.946-4.383-5.946Zm.49,11.725c-4.658,0-6.328-3.425-6.328-6.63a5.931,5.931,0,0,1,2.712-5.205,8.246,8.246,0,0,1,4.192-1.233,5.869,5.869,0,0,1,6.054,6.219A6.36,6.36,0,0,1,118,88.768a7.421,7.421,0,0,1-3.749,1.178Zm-31.31-.276a1.171,1.171,0,0,1-.082-.63.925.925,0,0,1,.082-.411,10.107,10.107,0,0,0,1.205-.245c.548-.137.767-.438.8-1.123.083-1.644.083-4.767.055-6.931v-.055a.83.83,0,0,0-.3-.767,6.191,6.191,0,0,0-1.644-.712c-.245-.082-.411-.219-.384-.383,0-.164.164-.356.52-.411a20.044,20.044,0,0,0,4.191-1.068.678.678,0,0,1,.137.438l-.028.3c-.028.3-.055.658-.055,1.014a.212.212,0,0,0,.219.192.386.386,0,0,0,.164-.055A7.722,7.722,0,0,1,91.98,76.96,3.546,3.546,0,0,1,95.158,78.9a.206.206,0,0,0,.192.11.2.2,0,0,0,.164-.082,8.327,8.327,0,0,1,4.3-1.972c2.547,0,4.055,1.89,4.055,5.1,0,.9,0,2.084-.028,3.151,0,.959-.028,1.835-.028,2.465a.862.862,0,0,0,.49.657,5.85,5.85,0,0,0,1.589.384h.028a2.2,2.2,0,0,1-.164,1.042,6.733,6.733,0,0,1-.685-.028q-1.042-.055-2.084-.055c-1.7,0-2.574.028-3.425.082a2.673,2.673,0,0,1,0-1.042,8.5,8.5,0,0,0,1.042-.245c.548-.164.685-.411.712-1.124,0-.52.109-4.959-.055-6.027a2.7,2.7,0,0,0-2.794-2.383A4.858,4.858,0,0,0,95.676,80a.49.49,0,0,0-.11.274V80.3a12.615,12.615,0,0,1,.11,2.246v1.778c0,1.233-.028,2.384,0,3.26a.8.8,0,0,0,.658.85c.164.027.274.055.411.082.245.055.49.11.876.192a1.478,1.478,0,0,1-.028.767.525.525,0,0,1-.11.274c-.931-.028-1.89-.055-3.287-.055-.411,0-1.124.028-1.726.028-.49,0-.959.028-1.233.028a1.445,1.445,0,0,1-.083-.548.853.853,0,0,1,.11-.49,1.852,1.852,0,0,1,.384-.055c.329-.055.6-.11.876-.164.466-.137.63-.384.658-.986a47.543,47.543,0,0,0-.028-6.273A2.581,2.581,0,0,0,90.47,78.85a5.026,5.026,0,0,0-2.794,1.069.884.884,0,0,0-.245.63v1.616c0,1.972,0,4.438.028,5.507a.85.85,0,0,0,.767.849,5.738,5.738,0,0,0,.63.11l.49.082a2.3,2.3,0,0,1-.082,1.042c-.274,0-.6-.028-.986-.028-.575-.028-1.315-.055-2.137-.055-.959,0-1.644.028-2.192.055a6.621,6.621,0,0,0-1.013-.055Z" transform="translate(-58.124 -54.057)"/>
  <path id="Path_113983" data-name="Path 113983" class="cls-3" d="M26.736,54.936l-1.123-.384s.137-5.725-1.918-6.136c-1.369-1.589.219-67.391,5.149-.219a4.006,4.006,0,0,0-2,2.3,21.129,21.129,0,0,0-.11,4.438Z" transform="translate(-16.329 -12.746)"/>
  <path id="Path_113984" data-name="Path 113984" class="cls-4" d="M26.736,54.936l-1.123-.384s.137-5.725-1.918-6.136c-1.369-1.589.219-67.391,5.149-.219a4.006,4.006,0,0,0-2,2.3,21.129,21.129,0,0,0-.11,4.438Z" transform="translate(-16.329 -12.746)"/>
  <path id="Path_113985" data-name="Path 113985" class="cls-3" d="M33,37.117s9.835-6.465,7.533-19.917C38.31,7.421,33.078,4.216,32.5,2.98A13.83,13.83,0,0,1,31.27.573l.411,27.2c0,.028-.85,8.328,1.315,9.342" transform="translate(-21.987 -0.461)"/>
  <path id="Path_113986" data-name="Path 113986" class="cls-5" d="M33,37.117s9.835-6.465,7.533-19.917C38.31,7.421,33.078,4.216,32.5,2.98A13.83,13.83,0,0,1,31.27.573l.411,27.2c0,.028-.85,8.328,1.315,9.342" transform="translate(-21.987 -0.461)"/>
  <path id="Path_113987" data-name="Path 113987" class="cls-3" d="M8.708,37.212s-9.233-6.3-8.685-17.4c.52-11.094,7.04-16.549,8.3-17.53A2.551,2.551,0,0,0,9.228.2c.576,1.233.466,18.437.548,20.464C10.022,28.473,9.337,35.733,8.708,37.212Z" transform="translate(0 -0.2)"/>
  <path id="Path_113988" data-name="Path 113988" class="cls-6" d="M8.708,37.212s-9.233-6.3-8.685-17.4c.52-11.094,7.04-16.549,8.3-17.53A2.551,2.551,0,0,0,9.228.2c.576,1.233.466,18.437.548,20.464C10.022,28.473,9.337,35.733,8.708,37.212Z" transform="translate(0 -0.2)"/>
</svg>
