<svg id="nodejs" xmlns="http://www.w3.org/2000/svg" width="151.621" height="42.814" viewBox="0 0 151.621 42.814">
  <defs>
    <style>
      .cls-1 {
        fill: #83cd29;
      }

      .cls-2 {
        fill: #404137;
      }
    </style>
  </defs>
  <g id="Group_49854" data-name="Group 49854" transform="translate(127.33 15.195)">
    <path id="Path_113974" data-name="Path 113974" class="cls-1" d="M442.255,51.611a2.1,2.1,0,0,0-1.046.256l-10.052,5.805a2.119,2.119,0,0,0-1.046,1.839V71.1a2.119,2.119,0,0,0,1.046,1.835l2.625,1.515a4.291,4.291,0,0,0,2.329.618c1.889,0,2.967-1.146,2.967-3.137V60.492a.287.287,0,0,0-.3-.277H437.52a.286.286,0,0,0-.3.277V71.929c0,.883-.919,1.77-2.411,1.024l-2.732-1.6a.3.3,0,0,1-.171-.256V59.507a.338.338,0,0,1,.171-.277l10.031-5.783a.3.3,0,0,1,.3,0l10.031,5.784a.341.341,0,0,1,.171.278V71.1a.322.322,0,0,1-.15.277l-10.052,5.784a.306.306,0,0,1-.3,0l-2.582-1.537a.269.269,0,0,0-.256,0,6.648,6.648,0,0,1-1.515.683c-.165.058-.415.147.085.429l3.371,1.985a2.109,2.109,0,0,0,2.091,0l10.052-5.784A2.122,2.122,0,0,0,454.4,71.1V59.508a2.119,2.119,0,0,0-1.049-1.836L443.3,51.867a2.093,2.093,0,0,0-1.046-.256Z" transform="translate(-430.111 -51.61)"/>
    <path id="Path_113975" data-name="Path 113975" class="cls-1" d="M468.477,79.528c-2.862,0-4.567,1.219-4.567,3.244,0,2.2,1.692,2.8,4.44,3.073,3.287.322,3.543.8,3.543,1.451,0,1.122-.895,1.6-3.009,1.6-2.657,0-3.241-.663-3.436-1.985a.29.29,0,0,0-.278-.256h-1.3a.306.306,0,0,0-.3.3c0,1.692.919,3.692,5.314,3.692,3.181,0,5.015-1.249,5.015-3.436,0-2.169-1.482-2.751-4.568-3.158-3.117-.412-3.415-.613-3.415-1.345,0-.6.252-1.41,2.561-1.41,2.063,0,2.825.445,3.138,1.839a.292.292,0,0,0,.278.235h1.3a.315.315,0,0,0,.213-.107.28.28,0,0,0,.085-.213c-.2-2.395-1.8-3.521-5.016-3.521Z" transform="translate(-453.644 -71.247)"/>
  </g>
  <path id="Path_113976" data-name="Path 113976" class="cls-2" d="M81.233.383a.639.639,0,0,0-.641.64V17.35a.429.429,0,0,1-.213.384.445.445,0,0,1-.448,0L77.263,16.2a1.279,1.279,0,0,0-1.28,0L65.333,22.344a1.312,1.312,0,0,0-.642,1.131V35.769a1.277,1.277,0,0,0,.64,1.109l10.65,6.147a1.276,1.276,0,0,0,1.28,0l10.65-6.147a1.278,1.278,0,0,0,.641-1.109V5.122A1.3,1.3,0,0,0,87.89,3.99L81.553.447a.623.623,0,0,0-.32-.061ZM12.724,15.728a1.2,1.2,0,0,0-.576.149L1.5,22.024a1.276,1.276,0,0,0-.639,1.109l.021,16.5a.629.629,0,0,0,.32.552.622.622,0,0,0,.641,0l6.317-3.627a1.3,1.3,0,0,0,.661-1.11v-7.7a1.274,1.274,0,0,1,.641-1.11l2.689-1.558a1.287,1.287,0,0,1,1.28,0l2.689,1.558a1.274,1.274,0,0,1,.642,1.11v7.7a1.306,1.306,0,0,0,.66,1.109l6.318,3.629a.622.622,0,0,0,.641,0,.642.642,0,0,0,.321-.555l.02-16.5a1.269,1.269,0,0,0-.64-1.109l-10.65-6.147a1.2,1.2,0,0,0-.576-.149Zm95.7.149a1.277,1.277,0,0,0-.64.171L97.133,22.2a1.277,1.277,0,0,0-.641,1.109V35.6a1.287,1.287,0,0,0,.661,1.11l10.565,6.018a1.281,1.281,0,0,0,1.259.021l6.4-3.564a.647.647,0,0,0,.341-.552.631.631,0,0,0-.32-.555l-10.714-6.147a.69.69,0,0,1-.341-.576V27.509a.658.658,0,0,1,.341-.555l3.33-1.921a.639.639,0,0,1,.641,0l3.329,1.921a.638.638,0,0,1,.321.552v3.03a.64.64,0,0,0,.96.552l6.382-3.713a1.283,1.283,0,0,0,.641-1.11V23.305a1.281,1.281,0,0,0-.641-1.11l-10.587-6.147a1.269,1.269,0,0,0-.641-.17ZM76.582,25.055a.357.357,0,0,1,.171.042L80.4,27.21a.331.331,0,0,1,.171.277v4.228a.33.33,0,0,1-.171.278l-3.651,2.113a.323.323,0,0,1-.32,0l-3.649-2.115a.33.33,0,0,1-.171-.278V27.485a.332.332,0,0,1,.171-.277L76.431,25.1a.281.281,0,0,1,.15-.042h0Z" transform="translate(-0.857 -0.383)"/>
  <path id="Path_113977" data-name="Path 113977" class="cls-1" d="M120.424,52.4a1.277,1.277,0,0,0-.64.171L109.135,58.7a1.31,1.31,0,0,0-.641,1.131v12.3a1.277,1.277,0,0,0,.641,1.11l10.65,6.147a1.274,1.274,0,0,0,1.28,0l10.65-6.147a1.278,1.278,0,0,0,.64-1.11V59.828a1.31,1.31,0,0,0-.64-1.131l-10.652-6.125A1.274,1.274,0,0,0,120.424,52.4Zm63.685,10.972a.262.262,0,0,0-.128.021l-2.049,1.2a.249.249,0,0,0-.128.213v2.348a.25.25,0,0,0,.128.213l2.049,1.174a.223.223,0,0,0,.235,0l2.049-1.174a.251.251,0,0,0,.128-.213V64.8a.251.251,0,0,0-.128-.213l-2.049-1.2a.178.178,0,0,0-.107-.021Z" transform="translate(-76.566 -36.971)"/>
</svg>
