<svg id="one-on-one" xmlns="http://www.w3.org/2000/svg" width="30.246" height="29.881" viewBox="0 0 30.246 29.881">
  <defs>
    <style>
      .cls-1 {
        fill: #f8b500;
      }

      .cls-2 {
        fill: #301353;
      }
    </style>
  </defs>
  <g id="Group_21" data-name="Group 21" transform="translate(0 0)">
    <g id="Group_20" data-name="Group 20" transform="translate(0.352 8.731)">
      <path id="Path_80" data-name="Path 80" class="cls-1" d="M194.292,167.732h8.681v2.883h-8.681Z" transform="translate(-183.862 -167.732)"/>
      <path id="Path_81" data-name="Path 81" class="cls-1" d="M46,382.85h8.681v2.883H46Z" transform="translate(-46 -367.719)"/>
      <path id="Path_82" data-name="Path 82" class="cls-1" d="M342.584,382.85h8.681v2.883h-8.681Z" transform="translate(-321.723 -367.719)"/>
    </g>
    <path id="Path_83" data-name="Path 83" class="cls-1" d="M199.439,241.9l-2.761-1.783V237.8a1.25,1.25,0,1,0-2.5,0v2.316l-2.761,1.783a1.25,1.25,0,1,0,1.356,2.1l2.655-1.714L198.084,244a1.25,1.25,0,0,0,1.356-2.1Z" transform="translate(-180.305 -222.98)"/>
    <path id="Path_84" data-name="Path 84" class="cls-2" d="M51.782,55.538h8.681a.352.352,0,0,0,.352-.352V51.16a2.954,2.954,0,0,0-2.583-2.927,2.808,2.808,0,1,0-4.218,0,2.955,2.955,0,0,0-2.583,2.927v4.026a.352.352,0,0,0,.351.352Zm.352-4.379a2.249,2.249,0,0,1,2.247-2.247H55a.352.352,0,0,0,.161-.664,2.1,2.1,0,1,1,1.924,0,.352.352,0,0,0,.161.664h.619a2.249,2.249,0,0,1,2.247,2.247v3.672H52.134ZM47.8,63.363a2.808,2.808,0,1,0-4.218,0A2.955,2.955,0,0,0,41,66.289v4.026a.352.352,0,0,0,.352.352h8.681a.352.352,0,0,0,.352-.352V66.289A2.955,2.955,0,0,0,47.8,63.362Zm1.88,6.6H41.7V66.289a2.249,2.249,0,0,1,2.247-2.247h.619a.352.352,0,0,0,.161-.664,2.1,2.1,0,1,1,1.924,0,.352.352,0,0,0,.161.664h.619a2.249,2.249,0,0,1,2.246,2.247Zm18.978-6.6a2.808,2.808,0,1,0-4.218,0,2.954,2.954,0,0,0-2.583,2.927v4.026a.352.352,0,0,0,.352.352h8.684a.352.352,0,0,0,.352-.352V66.289A2.954,2.954,0,0,0,68.659,63.363Zm1.88,6.6H62.565V66.289a2.249,2.249,0,0,1,2.247-2.247h.619a.352.352,0,0,0,.161-.664,2.1,2.1,0,1,1,1.924,0,.352.352,0,0,0,.161.664h.617a2.249,2.249,0,0,1,2.248,2.247v3.675Zm-20.2-19.294a.352.352,0,0,1-.123.482,11.6,11.6,0,0,0-5.165,6.511.352.352,0,1,1-.671-.211,12.3,12.3,0,0,1,5.474-6.905.352.352,0,0,1,.486.123Zm11.575,0a.352.352,0,0,1,.482-.123,12.3,12.3,0,0,1,5.473,6.905.352.352,0,1,1-.671.211,11.6,11.6,0,0,0-5.165-6.511.351.351,0,0,1-.123-.482ZM61.355,71.9a.352.352,0,0,1-.176.465,12.342,12.342,0,0,1-10.112,0,.352.352,0,0,1,.292-.642,11.64,11.64,0,0,0,9.534,0,.352.352,0,0,1,.462.177Z" transform="translate(-41 -43.571)"/>
  </g>
</svg>
