<svg id="personalized" xmlns="http://www.w3.org/2000/svg" width="27.745" height="29.881" viewBox="0 0 27.745 29.881">
  <defs>
    <style>
      .cls-1 {
        fill: #301353;
      }

      .cls-2 {
        fill: #f8b500;
      }
    </style>
  </defs>
  <g id="Group_23" data-name="Group 23" transform="translate(0 0)">
    <path id="Path_85" data-name="Path 85" class="cls-1" d="M125.048,411h19.963v2.18H125.048Z" transform="translate(-124.668 -383.682)"/>
    <path id="Path_86" data-name="Path 86" class="cls-2" d="M193.33,122.272h9.554v1.922H193.33Z" transform="translate(-187.745 -116.963)"/>
    <path id="Path_87" data-name="Path 87" class="cls-2" d="M170.914,187.406h-.3a1.177,1.177,0,1,0-1.076,0h-.3A1.245,1.245,0,0,0,168,188.652v1.773a.157.157,0,0,0,.157.157H172a.157.157,0,0,0,.157-.157v-1.773a1.245,1.245,0,0,0-1.245-1.245Z" transform="translate(-164.346 -175.078)"/>
    <path id="Path_88" data-name="Path 88" class="cls-2" d="M316.963,158.114l.811.811-9.129,9.129-2.5.881-.559,1.591,4.089-1.436,9.129-9.129Z" transform="translate(-291.447 -150.072)"/>
    <g id="Group_22" data-name="Group 22" transform="translate(0 0)">
      <path id="Path_89" data-name="Path 89" class="cls-1" d="M140.391,130.976a.381.381,0,0,0-.381.381v10.1h-19.2V118.035h3.138a.381.381,0,1,0,0-.759h-3.518a.381.381,0,0,0-.381.381v24.187a.381.381,0,0,0,.381.381h19.964a.381.381,0,0,0,.381-.381V131.359a.381.381,0,0,0-.381-.381Z" transform="translate(-120.048 -112.344)"/>
      <path id="Path_90" data-name="Path 90" class="cls-1" d="M336.184,118.035h3.137V121.7a.381.381,0,1,0,.759,0v-4.044a.381.381,0,0,0-.381-.381h-3.518a.381.381,0,0,0,0,.759Z" transform="translate(-319.36 -112.344)"/>
      <path id="Path_91" data-name="Path 91" class="cls-1" d="M188.71,60.15h9.554a.381.381,0,0,0,.381-.381V55.925a.381.381,0,0,0-.381-.381h-2.64a2.264,2.264,0,1,0-4.277,0h-2.639a.381.381,0,0,0-.381.381v3.843a.381.381,0,0,0,.383.381Zm.381-3.844h2.89a.381.381,0,0,0,.3-.61,1.5,1.5,0,1,1,2.4,0,.381.381,0,0,0,.3.61h2.89v3.081h-8.791Z" transform="translate(-183.126 -52.537)"/>
      <path id="Path_92" data-name="Path 92" class="cls-1" d="M172.717,290h-9.351a.381.381,0,1,0,0,.759h9.35a.381.381,0,0,0,0-.759Z" transform="translate(-159.713 -271.905)"/>
      <path id="Path_93" data-name="Path 93" class="cls-1" d="M176.811,329H163.4a.381.381,0,0,0,0,.759h13.416a.381.381,0,0,0,0-.759Z" transform="translate(-159.742 -307.933)"/>
      <path id="Path_94" data-name="Path 94" class="cls-1" d="M176.811,368H163.4a.381.381,0,0,0,0,.759h13.416a.381.381,0,0,0,0-.759Z" transform="translate(-159.742 -343.96)"/>
      <path id="Path_95" data-name="Path 95" class="cls-1" d="M314.458,145.247l-2.652-2.652a.381.381,0,0,0-.539,0l-9.129,9.129a.373.373,0,0,0-.051.064l-.01.018a.383.383,0,0,0-.026.054v.007l-1.436,4.089a.381.381,0,0,0,.359.507.377.377,0,0,0,.126-.021l4.089-1.436h.007a.368.368,0,0,0,.055-.026l.018-.01a.381.381,0,0,0,.064-.051l9.129-9.129a.381.381,0,0,0,0-.539Zm-9.4,8.859-2.116-2.114,6.967-6.967,2.114,2.114Zm-2.494-1.416,1.794,1.794-2.769.973Zm10-6.093-2.114-2.114,1.082-1.082,2.114,2.114Z" transform="translate(-286.829 -135.633)"/>
      <path id="Path_96" data-name="Path 96" class="cls-1" d="M253.008,191.329a.381.381,0,0,0,.381-.381v-2.065a.381.381,0,0,0-.381-.381h-7.127a.381.381,0,0,0-.381.381v4.764a.381.381,0,0,0,.381.381h4.2a.381.381,0,0,0,0-.759h-3.821v-4h6.364v1.684a.381.381,0,0,0,.385.377Z" transform="translate(-235.939 -178.143)"/>
    </g>
  </g>
</svg>
