<svg id="projects" xmlns="http://www.w3.org/2000/svg" width="47.148" height="29.881" viewBox="0 0 47.148 29.881">
  <defs>
    <style>
      .cls-1 {
        fill: #f8b500;
      }

      .cls-2 {
        fill: #301353;
      }
    </style>
  </defs>
  <path id="Path_97" data-name="Path 97" class="cls-1" d="M96.666,316.69h33.686v1.9H96.666Z" transform="translate(-89.936 -295.333)"/>
  <g id="Group_24" data-name="Group 24" transform="translate(0 0)">
    <path id="Path_98" data-name="Path 98" class="cls-2" d="M65.528,139.191a.528.528,0,0,0,.528-.528V116.251a.529.529,0,0,1,.528-.528h37.211a.529.529,0,0,1,.528.528v22.412a.529.529,0,1,0,1.057,0V116.251a1.587,1.587,0,0,0-1.585-1.585H66.585A1.587,1.587,0,0,0,65,116.251v22.412a.528.528,0,0,0,.528.528Z" transform="translate(-61.617 -114.666)"/>
    <path id="Path_99" data-name="Path 99" class="cls-2" d="M92.194,139.666a.528.528,0,0,0-.528.528v20.08a.528.528,0,0,0,.528.528H125.88a.528.528,0,0,0,.528-.528V140.194a.528.528,0,0,0-.528-.528Zm33.158,20.085H92.723V140.72h32.629v19.031Z" transform="translate(-85.464 -137.024)"/>
    <path id="Path_100" data-name="Path 100" class="cls-2" d="M77.891,354.666H35.255a2.255,2.255,0,1,0,0,4.51H77.892a2.255,2.255,0,0,0,0-4.51Zm0,3.453H35.255a1.2,1.2,0,0,1,0-2.4H77.892a1.2,1.2,0,1,1,0,2.4Z" transform="translate(-33 -329.295)"/>
  </g>
  <path id="Path_101" data-name="Path 101" class="cls-1" d="M215.711,208.37a.528.528,0,0,0-.722-.194l-4.6,2.656-4.6-2.656a.528.528,0,0,0-.528.915l4.6,2.656v5.31a.529.529,0,0,0,1.057,0v-5.31l4.6-2.656A.528.528,0,0,0,215.711,208.37Z" transform="translate(-186.817 -198.229)"/>
  <path id="Path_102" data-name="Path 102" class="cls-1" d="M210.39,193.839a.528.528,0,0,1-.264-.07l-4.862-2.807A.529.529,0,0,1,205,190.5v-5.61a.529.529,0,0,1,.264-.458l4.862-2.807a.529.529,0,0,1,.528,0l4.862,2.807a.529.529,0,0,1,.264.458v5.61a.529.529,0,0,1-.264.458l-4.862,2.807a.529.529,0,0,1-.264.07Zm-4.334-3.641,4.334,2.5,4.334-2.5v-5l-4.334-2.5-4.334,2.5Zm9.2.3Z" transform="translate(-186.818 -174.481)"/>
</svg>
