<svg xmlns="http://www.w3.org/2000/svg" width="19.143" height="26" viewBox="0 0 19.143 26">
  <defs>
    <style>
      .cls-1 {
        fill: none;
        stroke: #410065;
        stroke-width: 2px;
        opacity: 0.8;
      }
    </style>
  </defs>
  <path id="Icon_awesome-rupee-sign" data-name="Icon awesome-rupee-sign" class="cls-1" d="M16.5,5.679a.643.643,0,0,0,.643-.643V2.893A.643.643,0,0,0,16.5,2.25H.643A.643.643,0,0,0,0,2.893v2.4a.643.643,0,0,0,.643.643H5.211a3.865,3.865,0,0,1,3.266,1.46H.643A.643.643,0,0,0,0,8.036v2.143a.643.643,0,0,0,.643.643h8.5a3.7,3.7,0,0,1-4,3.141H.643A.643.643,0,0,0,0,14.605v2.84a.643.643,0,0,0,.207.472L9.049,26.08a.643.643,0,0,0,.436.17h4.423a.643.643,0,0,0,.436-1.115L6.261,17.674a7.339,7.339,0,0,0,7.41-6.852H16.5a.643.643,0,0,0,.643-.643V8.036a.643.643,0,0,0-.643-.643H13.356a7.338,7.338,0,0,0-.764-1.714Z" transform="translate(1 -1.25)"/>
</svg>
