<svg id="studentsDesigned" xmlns="http://www.w3.org/2000/svg" width="34.281" height="29.881" viewBox="0 0 34.281 29.881">
  <defs>
    <style>
      .cls-1 {
        fill: #f8b500;
      }

      .cls-2 {
        fill: #301353;
      }
    </style>
  </defs>
  <g id="Group_9" data-name="Group 9" transform="translate(0 0)">
    <path id="Path_3" data-name="Path 3" class="cls-1" d="M137.349,233.158v-1h1.587v1l-.259.226.664,3.692L138.173,241l-1.194-3.922.675-3.692Z" transform="translate(-129.073 -219.095)"/>
    <path id="Path_4" data-name="Path 4" class="cls-2" d="M66.272,307.266v9.464a1.578,1.578,0,0,0,1.074-1.495V306.5h-.308A.766.766,0,0,0,66.272,307.266Z" transform="translate(-63.793 -287.778)"/>
    <path id="Path_5" data-name="Path 5" class="cls-2" d="M95.988,352.325H93.675a.158.158,0,0,1-.158-.158v-.631a.158.158,0,0,1,.158-.158h2.314a.158.158,0,0,1,.158.158v.631a.158.158,0,0,1-.159.158Z" transform="translate(-88.889 -328.996)"/>
    <path id="Path_6" data-name="Path 6" class="cls-2" d="M223.911,306.5H223.6v8.736a1.578,1.578,0,0,0,1.074,1.495v-9.464a.766.766,0,0,0-.766-.766Z" transform="translate(-208.983 -287.778)"/>
    <path id="Path_7" data-name="Path 7" class="cls-2" d="M176.8,352.325h2.313a.158.158,0,0,0,.158-.158v-.631a.158.158,0,0,0-.158-.158H176.8a.158.158,0,0,0-.158.158v.631a.158.158,0,0,0,.159.158Z" transform="translate(-165.667 -328.996)"/>
    <g id="Group_7" data-name="Group 7" transform="translate(21.446 16.815)">
      <path id="Path_8" data-name="Path 8" class="cls-2" d="M314.484,334.353v7.561a1.261,1.261,0,0,0,.858-1.195V333.74H315.1a.612.612,0,0,0-.613.613Z" transform="translate(-314.483 -329.685)"/>
      <path id="Path_9" data-name="Path 9" class="cls-1" d="M359.758,282.334l1.839,3.2,1.792-3.2Z" transform="translate(-356.185 -282.334)"/>
      <path id="Path_10" data-name="Path 10" class="cls-2" d="M440.408,333.742h-.246v6.98a1.261,1.261,0,0,0,.858,1.195v-7.562a.613.613,0,0,0-.613-.613Z" transform="translate(-430.247 -329.687)"/>
    </g>
    <g id="Group_8" data-name="Group 8" transform="translate(0 0)">
      <path id="Path_11" data-name="Path 11" class="cls-2" d="M169.185,134.982a.577.577,0,1,0-.577-.577A.577.577,0,0,0,169.185,134.982Z" transform="translate(-158.248 -128.297)"/>
      <path id="Path_12" data-name="Path 12" class="cls-2" d="M120.809,133.828a.577.577,0,1,0,.577.577A.577.577,0,0,0,120.809,133.828Z" transform="translate(-113.619 -128.297)"/>
      <path id="Path_13" data-name="Path 13" class="cls-2" d="M136.336,168.32a1,1,0,0,1-1.412,0,.395.395,0,0,0-.558.558,1.788,1.788,0,0,0,2.527,0,.394.394,0,0,0-.557-.558Z" transform="translate(-126.559 -160.011)"/>
      <path id="Path_14" data-name="Path 14" class="cls-2" d="M86.48,69.474a3.456,3.456,0,0,0,2.851-1.932,7.993,7.993,0,0,0,5.425,2.048,7.146,7.146,0,0,0,1.3-.116.394.394,0,0,0,.322-.388,5.184,5.184,0,1,0-10.368,0,.394.394,0,0,0,.465.388ZM91.2,64.82a4.35,4.35,0,0,1,4.382,3.93c-2.272.284-4.988-.691-6.075-2.223a.394.394,0,0,0-.321-.166.4.4,0,0,0-.074.007.4.4,0,0,0-.309.295,2.366,2.366,0,0,1-1.966,1.927A4.357,4.357,0,0,1,91.2,64.82Z" transform="translate(-81.979 -63.902)"/>
      <path id="Path_15" data-name="Path 15" class="cls-2" d="M87.852,142.379a.395.395,0,0,0-.778.126,5.1,5.1,0,0,0,10.195,0,.395.395,0,0,0-.778-.126,4.321,4.321,0,0,1-8.64,0Z" transform="translate(-82.949 -135.899)"/>
      <path id="Path_16" data-name="Path 16" class="cls-2" d="M50.47,212.859H47.059v-.933a.419.419,0,0,0-.565-.492l-2.424,1.161-2.423-1.161a.513.513,0,0,0-.565.492v.933H37.672a2.824,2.824,0,0,0-2.822,2.822v11.952a1.972,1.972,0,0,0,3.767.819,9.446,9.446,0,0,0,5.419,1.6h.072a9.445,9.445,0,0,0,5.418-1.6,1.972,1.972,0,0,0,3.767-.819V215.681A2.825,2.825,0,0,0,50.47,212.859Zm-4.087,5.4.691.57-2.581,3.324v-.225l2.464-8.288h1.72l-.95,3.382-1.253.571a.394.394,0,0,0-.086.663Zm-4.493-.356a.394.394,0,0,0-.227-.308l-1.253-.571-.949-3.384h1.721l2.522,8.287v.3l-2.639-3.4.691-.57a.4.4,0,0,0,.138-.353Zm2.174-4.482a.4.4,0,0,0,.173-.039l2.029-.972v.778L44.093,220.5l-2.226-7.313v-.778l2.029.972a.4.4,0,0,0,.173.039Zm-6.393.219h.972l1.064,3.773a.4.4,0,0,0,.216.251l.845.385-.5.412a.394.394,0,0,0-.06.546l3.446,4.439a.392.392,0,0,0,.05.133v5.672A8.326,8.326,0,0,1,38.8,227.6v-8.7a.395.395,0,1,0-.789,0v5.935H35.639V215.68A2.035,2.035,0,0,1,37.672,213.646Zm-.848,15.169a1.186,1.186,0,0,1-1.184-1.185v-2.01h2.369v2.012a1.186,1.186,0,0,1-1.184,1.184Zm14.5,0a1.186,1.186,0,0,1-1.184-1.185v-2.01H52.5v2.012a1.186,1.186,0,0,1-1.185,1.184ZM52.5,224.83H50.134v-5.935a.395.395,0,1,0-.789,0v8.7a8.3,8.3,0,0,1-4.85,1.66v-5.813l3.438-4.429a.394.394,0,0,0-.06-.546l-.5-.412.845-.385a.4.4,0,0,0,.216-.251l1.059-3.773h.976a2.035,2.035,0,0,1,2.033,2.033Z" transform="translate(-34.85 -200.176)"/>
      <path id="Path_17" data-name="Path 17" class="cls-2" d="M396.715,195.768a.461.461,0,1,0,.461.461A.461.461,0,0,0,396.715,195.768Z" transform="translate(-368.357 -185.439)"/>
      <path id="Path_18" data-name="Path 18" class="cls-2" d="M358.061,195.768a.461.461,0,1,0,.461.461A.461.461,0,0,0,358.061,195.768Z" transform="translate(-332.599 -185.439)"/>
      <path id="Path_19" data-name="Path 19" class="cls-2" d="M369.484,222.348a.718.718,0,0,1-1.016,0,.395.395,0,0,0-.558.558,1.507,1.507,0,0,0,2.131,0,.395.395,0,0,0-.558-.558Z" transform="translate(-342.026 -209.855)"/>
      <path id="Path_20" data-name="Path 20" class="cls-2" d="M300.93,271.571h-3.093l-.042.008-.026.008a.407.407,0,0,0-.047.018l-.018.009a.394.394,0,0,0-.048.03l-.013.01a.4.4,0,0,0-.045.042l-.008.01a.391.391,0,0,0-.04.057h0l-1.709,3.05-1.75-3.053-.008-.011a.387.387,0,0,0-.025-.035c-.008-.01-.015-.019-.022-.028l-.029-.026-.029-.024a.332.332,0,0,0-.032-.02c-.01-.006-.022-.013-.033-.018l-.036-.014a.3.3,0,0,0-.036-.011l-.035-.006h-3.1a2.333,2.333,0,0,0-2.333,2.333v9.55a1.655,1.655,0,0,0,3.119.778,7.677,7.677,0,0,0,4.3,1.241h.06a7.674,7.674,0,0,0,4.293-1.24,1.655,1.655,0,0,0,3.12-.778V273.9a2.333,2.333,0,0,0-2.336-2.334Zm1.545,2.333v7.233H300.74v-4.665a.395.395,0,0,0-.789,0v6.912a6.544,6.544,0,0,1-3.715,1.28v-8.336l.565.353a.394.394,0,0,0,.551-.139l2.388-4.186h1.189a1.546,1.546,0,0,1,1.545,1.545Zm-8.958-1.545,1.794,3.128-.5.31-1.961-3.439Zm4.606,0h.71l-1.961,3.439-.5-.312Zm-7.417,0h1.238l2.388,4.186a.395.395,0,0,0,.551.139l.565-.352v8.339a6.561,6.561,0,0,1-3.763-1.283v-6.912a.395.395,0,0,0-.789,0v4.665h-1.735v-7.233a1.546,1.546,0,0,1,1.545-1.545Zm-.677,11.962a.864.864,0,0,1-.864-.864v-1.528H290.9v1.528a.864.864,0,0,1-.871.865Zm11.577,0a.864.864,0,0,1-.864-.864v-1.528h1.737v1.528a.864.864,0,0,1-.872.865Z" transform="translate(-268.986 -255.606)"/>
      <path id="Path_21" data-name="Path 21" class="cls-2" d="M335.963,168.456c-.24,0-.481.01-.715.02a6.186,6.186,0,0,1-1.686-.079,5.091,5.091,0,0,1-1.852-.892.394.394,0,0,0-.6.249,3.815,3.815,0,0,1-1.079,1.807.393.393,0,0,0-.771.113c0,2.678,1.894,4.865,4.221,4.865,2.292,0,4.162-2.116,4.219-4.741v-.124a.395.395,0,0,0-.789,0v.1a.458.458,0,0,1-.306.407V169.1a.64.64,0,0,0-.639-.639Zm.772,2.5a3.55,3.55,0,0,1-3.257,2.793,3.623,3.623,0,0,1-3.343-3.15l.164-.173a6.241,6.241,0,0,0,1.42-1.972,5.111,5.111,0,0,0,1.661.713,6.882,6.882,0,0,0,1.9.1c.183-.008.359-.015.533-.018v1.1a.64.64,0,0,0,.639.639,1.251,1.251,0,0,0,.282-.034Z" transform="translate(-306.645 -159.343)"/>
      <path id="Path_22" data-name="Path 22" class="cls-2" d="M311.52,139.314v.017a.395.395,0,1,0,.789,0v-.017a4.416,4.416,0,0,0-.677-2.312,4.967,4.967,0,1,1,8.455.013,4.393,4.393,0,0,0-.67,2.316.395.395,0,1,0,.789,0,3.6,3.6,0,0,1,.55-1.9,5.756,5.756,0,1,0-9.8-.016,3.629,3.629,0,0,1,.56,1.9Z" transform="translate(-289.006 -123.563)"/>
    </g>
  </g>
</svg>
